{
  "accessors": [
    {
      "bufferView": 3,
      "componentType": 5126,
      "count": 1276,
      "max": [
        189.9812469482422,
        96.21744537353516,
        31.533105850219727
      ],
      "min": [
        -189.27734375,
        -1.2081525779805702e-09,
        -31.533098220825195
      ],
      "type": "VEC3"
    },
    {
      "bufferView": 3,
      "byteOffset": 15312,
      "componentType": 5126,
      "count": 1276,
      "max": [
        1.0,
        1.0,
        1.0
      ],
      "min": [
        -1.0,
        -1.0,
        -1.0
      ],
      "type": "VEC3"
    },
    {
      "bufferView": 4,
      "componentType": 5126,
      "count": 1276,
      "max": [
        1.0,
        1.0,
        1.0,
        1.0
      ],
      "min": [
        -1.0,
        -1.0,
        -1.0,
        -1.0
      ],
      "type": "VEC4"
    },
    {
      "bufferView": 2,
      "componentType": 5126,
      "count": 1276,
      "max": [
        0.994140625,
        -0.00244140625
      ],
      "min": [
        0.0019989013671875,
        -0.9980010986328125
      ],
      "type": "VEC2"
    },
    {
      "bufferView": 1,
      "componentType": 5125,
      "count": 4128,
      "type": "SCALAR"
    },
    {
      "bufferView": 5,
      "componentType": 5126,
      "count": 3,
      "max": [
        1.0,
        0.0,
        0.0,
        0.0,
        0.9999958872795105,
        1.0,
        5.960526294757074e-08,
        0.0,
        0.0,
        0.0,
        1.0,
        0.0,
        0.0,
        0.0,
        0.0,
        1.0
      ],
      "min": [
        0.002857148414477706,
        -0.9999958872795105,
        -1.0430924703541677e-05,
        0.0,
        0.0,
        0.002857148414477706,
        0.0,
        0.0,
        -2.9802320611338473e-08,
        -1.0431052032799926e-05,
        1.0,
        0.0,
        -62.03957748413086,
        -0.20302586257457733,
        -4.8308443183486816e-06,
        1.0
      ],
      "type": "MAT4"
    },
    {
      "bufferView": 0,
      "componentType": 5123,
      "count": 1276,
      "type": "VEC4"
    },
    {
      "bufferView": 4,
      "byteOffset": 20416,
      "componentType": 5126,
      "count": 1276,
      "max": [
        1.0,
        0.0,
        0.0,
        0.0
      ],
      "min": [
        1.0,
        0.0,
        0.0,
        0.0
      ],
      "type": "VEC4"
    }
  ],
  "asset": {
    "extras": {
      "author": "LostBoyz2078 (https://sketchfab.com/LostModels2025)",
      "license": "CC-BY-4.0 (http://creativecommons.org/licenses/by/4.0/)",
      "source": "https://sketchfab.com/3d-models/seesaws-dbc317e5859a4ce9abd545be5a668a3f",
      "title": "Seesaws"
    },
    "generator": "Sketchfab-15.38.0",
    "version": "2.0"
  },
  "bufferViews": [
    {
      "buffer": 0,
      "byteLength": 10208,
      "byteStride": 8,
      "name": "shortBufferViews",
      "target": 34962
    },
    {
      "buffer": 0,
      "byteLength": 16512,
      "byteOffset": 10208,
      "name": "floatBufferViews",
      "target": 34963
    },
    {
      "buffer": 0,
      "byteLength": 10208,
      "byteOffset": 26720,
      "byteStride": 8,
      "name": "floatBufferViews",
      "target": 34962
    },
    {
      "buffer": 0,
      "byteLength": 30624,
      "byteOffset": 36928,
      "byteStride": 12,
      "name": "floatBufferViews",
      "target": 34962
    },
    {
      "buffer": 0,
      "byteLength": 40832,
      "byteOffset": 67552,
      "byteStride": 16,
      "name": "floatBufferViews",
      "target": 34962
    },
    {
      "buffer": 0,
      "byteLength": 192,
      "byteOffset": 108384,
      "name": "floatBufferViews"
    }
  ],
  "buffers": [
    {
      "byteLength": 108576,
      "uri": "scene.bin"
    }
  ],
  "images": [
    {
      "uri": "textures/M_Seesaw_baseColor.jpeg"
    },
    {
      "uri": "textures/M_Seesaw_normal.jpeg"
    }
  ],
  "materials": [
    {
      "name": "M_Seesaw",
      "normalTexture": {
        "index": 1
      },
      "pbrMetallicRoughness": {
        "baseColorFactor": [
          0.588,
          0.588,
          0.588,
          1.0
        ],
        "baseColorTexture": {
          "index": 0
        }
      }
    }
  ],
  "meshes": [
    {
      "name": "Object_0",
      "primitives": [
        {
          "attributes": {
            "JOINTS_0": 6,
            "NORMAL": 1,
            "POSITION": 0,
            "TANGENT": 2,
            "TEXCOORD_0": 3,
            "TEXCOORD_1": 3,
            "WEIGHTS_0": 7
          },
          "indices": 4,
          "material": 0,
          "mode": 4
        }
      ]
    }
  ],
  "nodes": [
    {
      "children": [
        1
      ],
      "matrix": [
        1.0,
        0.0,
        0.0,
        0.0,
        0.0,
        2.220446049250313e-16,
        -1.0,
        0.0,
        0.0,
        1.0,
        2.220446049250313e-16,
        0.0,
        0.0,
        0.0,
        0.0,
        1.0
      ],
      "name": "Sketchfab_model"
    },
    {
      "children": [
        2
      ],
      "name": "root"
    },
    {
      "children": [
        3
      ],
      "matrix": [
        1.0,
        0.0,
        0.0,
        0.0,
        0.0,
        2.220446049250313e-16,
        1.0,
        0.0,
        0.0,
        -1.0,
        2.220446049250313e-16,
        0.0,
        0.0,
        0.0,
        0.0,
        1.0
      ],
      "name": "GLTF_SceneRootNode"
    },
    {
      "children": [
        4,
        7,
        5
      ],
      "name": "GLTF_created_0"
    },
    {
      "children": [
        8
      ],
      "name": "GLTF_created_0_rootJoint"
    },
    {
      "children": [
        6
      ],
      "matrix": [
        1.0,
        0.0,
        0.0,
        0.0,
        0.0,
        0.0,
        -1.0,
        0.0,
        0.0,
        1.0,
        0.0,
        0.0,
        0.0,
        0.0,
        0.0,
        1.0
      ],
      "name": "SK_Seasaw_2"
    },
    {
      "name": "SK_Seasaw_3"
    },
    {
      "mesh": 0,
      "name": "Object_7",
      "skin": 0
    },
    {
      "children": [
        9
      ],
      "name": "SK_Seasaw_0",
      "rotation": [
        3.7037202673673164e-06,
        3.6721098695124965e-06,
        -0.7060958743095398,
        -0.7081162333488464
      ],
      "translation": [
        -0.20190805196762085,
        0.39152419567108154,
        1.7114066608314715e-08
      ]
    },
    {
      "name": "Bone002_1",
      "rotation": [
        0.0,
        -2.786999917889113e-15,
        0.0,
        1.0
      ],
      "translation": [
        61.64863204956055,
        -1.862645149230957e-06,
        2.6843058549275156e-06
      ]
    }
  ],
  "samplers": [
    {
      "magFilter": 9729,
      "minFilter": 9729,
      "wrapS": 10497,
      "wrapT": 10497
    }
  ],
  "scene": 0,
  "scenes": [
    {
      "name": "Sketchfab_Scene",
      "nodes": [
        0
      ]
    }
  ],
  "skins": [
    {
      "inverseBindMatrices": 5,
      "joints": [
        4,
        8,
        9
      ],
      "skeleton": 4
    }
  ],
  "textures": [
    {
      "sampler": 0,
      "source": 0
    },
    {
      "sampler": 0,
      "source": 1
    }
  ]
}
